PathFileType	4	(X/Y/Z)	C:/Users/beibeiliu/ov580/test_trc\sequence.3_training_dense_left.trc
DataRate	CameraRate	NumFrames	NumMarkers	Units	OrigDataRate	OrigDataStartFrame	OrigNumFrames
120	120	18	19	mm	120	160	319
Frame#	Time	ThumbCMC			ThumbMCP			ThumbIP			ThumbTip			IndexMCP			IndexPIP			IndexTip			MiddleMCP			MiddlePIP			MiddleTip			RingMCP			RingPIP			RingTip			PinkyMCP			PinkyPIP			PinkyTip			BackHand1			BackHand2			BackHand3	
		X0	Y0	Z0	X1	Y1	Z1	X2	Y2	Z2	X3	Y3	Z3	X4	Y4	Z4	X5	Y5	Z5	X6	Y6	Z6	X7	Y7	Z7	X8	Y8	Z8	X9	Y9	Z9	X10	Y10	Z10	X11	Y11	Z11	X12	Y12	Z12	X13	Y13	Z13	X14	Y14	Z14	X15	Y15	Z15	X16	Y16	Z16	X17	Y17	Z17	X18	Y18	Z18	
159	1.325	-225.539	48.3263	1.14508	-238.01	52.7605	-32.6544	-243.915	39.5847	-53.8971	-240.351	23.1186	-70.0487	-267.128	34.1121	-46.1095	-250.708	50.8102	-64.3691	-236.525	49.2679	-41.6286	-254.965	17.0238	-59.0254	-241.131	36.6319	-79.8506	-218.63	50.5113	-61.1797	-229.88	15.2966	-62.2523	-216.239	38.4584	-57.0683	-214.043	30.0324	-30.6338	-221.845	5.67157	-60.0043	-210.159	25.9344	-60.2757	-205.836	29.6729	-35.9699	-227.341	-6.1924	-14.2134	-214.074	-4.42978	7.45886	-237.16	13.8132	3.87467	
160	1.33333	-223.967	46.9361	2.24099	-236.91	54.6405	-28.932	-245.544	44.7442	-52.5922	-245.872	24.097	-70.6468	-268.68	35.8311	-47.7902	-254.444	52.7195	-64.1675	-237.83	51.5508	-36.3095	-260.949	24.2637	-59.3334	-245.545	41.3058	-77.4025	-218.452	50.2867	-58.5144	-237.386	17.0065	-59.3977	-214.235	36.1609	-56.0483	-214.587	29.3131	-31.785	-225.906	4.24187	-59.3797	-209.713	26.0879	-58.8505	-209.892	25.974	-32.0533	-237.45	-2.01952	-15.4933	-219.217	-0.45842	8.29787	-240.437	17.7739	8.27945	
161	1.34167	-223.794	47.4659	2.9074	-235.667	59.7594	-29.3948	-246.306	47.3839	-50.5212	-250.181	30.2135	-68.5291	-270.883	46.2314	-42.2202	-256.769	59.479	-61.6597	-237.698	52.7816	-35.8165	-263.042	28.1111	-54.1148	-248.051	43.3584	-76.56	-219.889	50.7024	-61.2438	-240.916	20.9637	-61.3352	-221.118	37.9457	-56.3401	-218.11	26.9507	-29.109	-233.367	5.90282	-57.4373	-218.201	25.5094	-60.374	-208.777	23.5946	-35.5992	-241.762	-0.191864	-15.8169	-223.863	-4.41067	4.9701	-242.424	17.5226	5.84123	
162	1.35	-223.928	47.0478	3.58869	-234.817	60.1621	-27.4582	-244.489	54.4184	-48.5564	-251.373	36.8481	-63.8176	-271.794	53.4255	-39.7891	-250.646	61.8096	-58.9596	-236.143	55.3056	-32.9727	-267.336	36.0599	-54.8177	-248.443	52.6954	-73.8125	-221.31	54.6788	-59.3528	-243.955	28.5471	-59.0871	-221.432	36.6403	-55.1848	-218.688	28.4843	-29.0771	-239.215	10.9199	-59.1885	-217.756	24.2098	-59.5826	-212.776	21.3829	-30.8842	-246.111	2.13027	-12.9198	-230.61	-2.41936	6.76916	-244.026	24.3532	11.2826	
163	1.35833	-222.503	49.6383	4.24248	-229.788	61.9132	-23.639	-246.802	55.8176	-48.06	-252.493	41.8742	-63.1695	-268.759	59.8253	-38.367	-249.134	66.1793	-57.15	-233.441	58.9445	-34.0929	-268.012	44.5323	-51.2397	-250.787	52.7956	-72.1805	-221.507	55.4941	-59.297	-248.27	28.7733	-55.1701	-224.199	39.067	-55.172	-222.528	31.2911	-26.239	-243.922	15.0744	-54.2902	-222.477	26.6693	-56.9573	-216.041	22.2178	-33.6756	-251.646	4.96242	-10.1223	-233.653	1.2624	11.0684	-243.242	27.7332	12.9362	
164	1.36667	-220.438	48.2383	4.1647	-226.456	62.7717	-23.1401	-243.517	56.5617	-43.2495	-254.289	46.721	-61.4806	-266.327	68.169	-37.4316	-246.705	72.5903	-55.3913	-231.488	61.115	-34.3202	-267.57	51.6199	-46.2127	-247.682	57.1739	-70.2118	-218.558	50.3826	-56.4029	-250.484	33.3244	-53.7125	-223.808	35.7388	-55.1107	-221.625	31.6451	-28.2147	-248.195	15.2416	-52.9852	-224.767	27.7204	-52.9145	-221.534	23.7986	-26.6127	-254.142	10.0323	-9.22723	-237.07	-0.953199	11.7145	-246.763	31.3966	12.3805	
165	1.375	-217.835	49.7903	4.944	-223.392	62.5438	-22.0527	-240.112	60.9792	-44.0989	-251.515	49.6359	-60.0314	-262.675	71.6209	-32.2044	-243.439	69.9999	-54.5016	-229.576	58.1587	-33.1185	-265.822	54.3865	-46.7992	-242.817	57.56	-68.108	-218.28	48.9216	-51.4592	-252.858	39.1457	-51.253	-225.41	37.6283	-52.6441	-222.449	31.166	-27.6284	-251.817	21.8621	-51.2399	-228.208	22.3837	-54.6011	-224.615	22.3394	-28.9425	-259.799	13.1307	-5.52869	-243.697	5.3738	13.5938	-247.022	31.2396	14.0163	
166	1.38333	-213.621	50.1281	2.61741	-214.043	62.2581	-26.9232	-226.311	69.2002	-49.9755	-241.538	54.3697	-64.3788	-257.757	74.4879	-30.6037	-239.467	71.2627	-53.1415	-224.477	59.4976	-28.1143	-263.516	60.1681	-46.4259	-239.143	54.6415	-62.0119	-224.408	40.6035	-36.8766	-259.735	36.7577	-50.1699	-232.653	38.1577	-54.9108	-224.719	27.2021	-31.3924	-255.359	21.0508	-51.2859	-231.945	25.4163	-49.2828	-225.812	19.5339	-26.6572	-261.543	16.4838	-2.01382	-242.545	8.04428	16.4826	-243.213	38.9911	15.1078	
167	1.39167	-208.336	46.0874	3.28537	-212.137	58.9894	-29.7936	-217.891	65.5668	-50.3601	-236.27	56.5783	-70.7976	-252.804	79.3749	-33.9116	-234.744	70.1857	-53.3134	-221.863	55.183	-31.0836	-260.101	59.8014	-44.8656	-237.16	53.2004	-59.492	-228.217	38.2578	-30.1914	-259.705	42.7637	-45.2221	-233.27	37.1918	-55.5217	-225.672	26.8499	-29.5571	-259.247	26.3001	-46.0782	-235.116	22.2268	-51.0561	-226.193	17.5274	-26.7057	-263.147	22.7869	-0.879985	-243.91	8.72578	16.4218	-241.079	40.7275	15.1029	
168	1.4	-208.987	42.91	-0.356035	-204.415	53.3106	-29.0863	-218.117	59.7994	-51.659	-232.441	56.0067	-72.1089	-245.318	81.2884	-31.856	-230.845	70.562	-54.8169	-217.626	51.6086	-36.5134	-253.036	64.8593	-44.2473	-233.157	52.0327	-59.4529	-225.45	38.1462	-27.3067	-254.99	45.8252	-50.054	-230.85	38.4786	-53.2607	-224.558	27.6695	-31.7994	-259.158	28.4121	-46.201	-233.641	24.1839	-48.8622	-228.003	20.6901	-27.0156	-260.11	26.3495	0.489194	-246.549	9.63094	15.4375	-237.259	40.5141	18.2721	
169	1.40833	-199.949	37.5844	0.953779	-204.442	50.7913	-29.5272	-216.384	58.0621	-49.922	-230.885	52.5714	-65.5994	-237.861	82.2982	-32.1541	-224.555	75.4959	-56.8496	-210.269	53.9885	-44.8955	-250.006	65.5466	-43.8048	-227.151	52.7373	-60.6467	-220.058	35.1064	-36.7313	-253.589	48.1461	-46.26	-231.28	32.5658	-56.7678	-224.772	21.1124	-27.9257	-255.803	33.3894	-45.9626	-235.995	19.5993	-49.6251	-229.255	15.6322	-26.3931	-256.837	30.8694	0.305806	-245.373	12.9921	18.7838	-235.294	39.6999	16.2797	
170	1.41667	-200.143	36.1289	1.65131	-196.985	53.9901	-24.7717	-213.335	60.3063	-40.8367	-238.358	51.5283	-54.0452	-229.831	80.0131	-38.2479	-219.753	72.3042	-60.8663	-204.157	47.3325	-54.0519	-243.406	67.1984	-48.168	-222.879	52.8168	-66.5074	-218.282	29.2114	-46.9398	-247.71	46.1163	-53.4664	-225.545	29.4571	-55.2586	-222.426	20.2302	-32.4657	-256.863	31.3942	-48.3041	-235.356	21.4759	-51.0053	-230.145	16.2667	-23.8904	-257.432	31.2857	-3.03667	-248.489	13.2786	15.9137	-231.951	38.3859	15.1062	
171	1.425	-196.356	29.919	1.91577	-194.821	46.9144	-24.2969	-212.484	56.0671	-41.1649	-229.682	52.212	-52.7386	-220.968	79.0069	-39.4242	-214.938	69.0344	-61.678	-200.812	42.4375	-55.2295	-236.112	67.6482	-47.9657	-221.988	53.8034	-67.8933	-212.892	26.8962	-47.3096	-242.654	49.1632	-50.5103	-226.645	30.7106	-59.222	-221.58	17.6649	-30.6655	-254.602	33.5757	-47.5212	-232.671	18.9745	-51.4127	-227.55	14.6437	-28.5417	-255.328	36.9084	-5.51387	-245.894	13.9577	17.1692	-224.137	38.1074	13.7989	
172	1.43333	-194.215	25.0508	-2.07306	-185.591	35.6079	-33.0403	-198.257	47.9157	-52.4095	-215.321	48.3328	-71.7068	-212.785	77.1464	-33.1814	-207.282	68.6477	-60.3956	-196.481	42.9027	-50.0964	-230.388	65.9133	-45.6139	-215.067	49.2794	-65.2173	-213.992	26.7978	-38.5239	-236.503	51.673	-52.9328	-222.043	29.736	-58.139	-221.709	16.1724	-35.2025	-252.581	34.7326	-49.3831	-231.282	18.7421	-51.3774	-226.901	11.391	-25.255	-247.559	39.9052	-3.68295	-246.214	16.8257	14.3017	-225.609	34.7169	13.2491	
173	1.44167	-194.888	21.3252	-3.71781	-187.937	29.7415	-34.6296	-189.334	41.8267	-57.7794	-206.451	44.9174	-73.1226	-204.885	73.2471	-34.3997	-195.992	59.6248	-60.0719	-197.555	35.6582	-46.707	-221.59	65.7356	-46.2596	-209.07	44.796	-64.3788	-208.667	27.4891	-36.1241	-232.13	52.9386	-49.4204	-221.514	31.009	-62.2994	-214.303	17.7088	-36.3616	-245.238	39.9127	-50.7964	-227.864	21.7407	-53.3173	-224.451	11.1798	-29.5301	-242.732	40.1595	-1.13644	-242.071	19.6123	11.678	-217.277	37.6564	13.0346	
174	1.45	-191.215	17.3099	-5.11511	-184.307	25.3838	-34.6044	-182.97	36.1593	-58.533	-201.157	41.8464	-72.0709	-191.712	69.44	-33.8409	-189.768	54.5996	-60.1055	-190.656	29.671	-43.0792	-212.276	64.4268	-47.9945	-203.603	41.111	-64.5451	-205.966	24.6421	-40.5033	-227.411	52.7127	-54.2603	-211.318	31.6172	-61.2031	-211.886	16.003	-39.3527	-240.195	41.3811	-52.6512	-222.89	24.9068	-57.3006	-219.78	12.6	-34.3071	-241.032	42.8313	-4.86407	-241.078	20.093	12.0427	-213.694	34.2235	12.4608	
175	1.45833	-187.892	9.89868	-3.45953	-176.159	18.0287	-36.71	-179.95	28.7841	-57.288	-191.677	36.2515	-78.4794	-185.882	64.1995	-37.3846	-176.892	52.4738	-60.6901	-181.281	24.228	-45.7612	-203.1	62.634	-49.9364	-197.338	41.5821	-68.0397	-199.897	22.4818	-38.1088	-217.644	52.6723	-53.6735	-204.825	30.3562	-62.5267	-205.58	14.4324	-43.7558	-233.93	43.3278	-54.8481	-219.549	25.1884	-59.9865	-213.803	11.6947	-37.6489	-232.444	38.5666	-3.801	-234.279	20.5052	11.1781	-208.535	30.885	12.0835	
176	1.46667	-182.929	7.78597	-7.41275	-172.563	10.6957	-38.1577	-173.608	20.5504	-58.8714	-186.573	30.582	-78.3106	-176.384	58.9027	-38.1274	-174.023	43.529	-62.6385	-177.444	19.6758	-50.5322	-192.981	58.7496	-50.9052	-187.754	37.8489	-68.2269	-193.31	17.0592	-39.7047	-210.186	51.3993	-54.5008	-203.49	28.6446	-66.9397	-202.713	11.0657	-41.7029	-222.883	45.5413	-52.7277	-215.357	22.2306	-61.1044	-212.177	10.3945	-39.7744	-226.804	40.4805	-5.60381	-231.252	21.586	10.2475	-200.893	31.3509	10.2252	
